<svg width="82" height="78" viewBox="0 0 82 78" fill="none" xmlns="http://www.w3.org/2000/svg">
<g filter="url(#filter0_d_1519_4472)">
<rect x="13" y="9" width="55.1034" height="51.6594" rx="7.74891" fill="white" shape-rendering="crispEdges"/>
<path d="M41.2089 43.387L37.2593 44.7035V49.3113L38.5758 50.6278L39.2341 49.9695L47.1332 46.02L47.7915 44.7035V42.0704L46.4749 40.7539L41.2089 43.387Z" fill="#EF5E7F"/>
<path d="M29.3973 18.4513C32.235 16.5096 35.9694 16.5199 38.8063 18.4601C39.046 18.6243 39.1993 18.7763 39.2663 18.9161C39.4512 19.2995 39.0702 19.8559 38.6111 19.7889C38.3679 19.753 38.0706 19.5155 37.8394 19.3696C35.5318 17.9181 32.6096 17.9149 30.2988 19.388C30.0676 19.5352 29.9037 19.6199 29.807 19.6422C29.4124 19.7323 29.0521 19.4214 29.0497 19.0269C29.0481 18.7646 29.1749 18.6036 29.3973 18.4513Z" fill="#3B3B58"/>
<path d="M35.2849 29.5635L34.6266 30.2218L31.9936 34.1713L30.6771 36.8043L30.0188 38.7791H26.7275L26.0692 37.4626L25.411 36.8043L26.0692 36.1461L27.3858 32.1965L29.3605 28.9052L30.0188 28.247C30.2382 28.0276 30.8087 27.5887 31.3353 27.5887H32.6518C33.0907 27.8081 34.1 28.247 34.6266 28.247V28.9052L35.2849 29.5635Z" fill="#FAB094"/>
<path d="M34.5744 28.9804C34.0122 28.7141 33.4492 28.4495 32.8853 28.1865C32.3821 27.9516 32.0077 27.8203 31.7622 27.7927C31.0695 27.7146 30.3362 28.0007 29.8715 28.5308C29.7498 28.6706 29.6055 28.9089 29.4386 29.2458C28.1585 31.8322 26.8796 34.4188 25.6021 37.0057C25.5899 37.0307 25.5934 37.053 25.6125 37.0727C26.2103 37.6758 26.8084 38.2736 27.4068 38.8661C27.9138 39.3683 27.4466 40.1989 26.7803 39.9534C26.6862 39.9183 26.5762 39.8381 26.4503 39.7127C25.7881 39.0521 25.1276 38.3908 24.4686 37.7287C24.1681 37.4266 24.0789 37.209 24.2702 36.8224C25.6789 33.9724 27.0879 31.1225 28.4972 28.2726C28.6567 27.951 28.8945 27.6548 29.2107 27.3838C30.0269 26.6847 31.0902 26.3675 32.1512 26.5651C32.4658 26.6241 32.9496 26.8069 33.6027 27.1136C34.1703 27.3803 34.736 27.6466 35.2998 27.9123C35.3067 27.9154 35.3145 27.9161 35.3218 27.914C35.3291 27.912 35.3354 27.9074 35.3396 27.9011C36.4365 26.2973 37.6927 24.7461 39.0693 23.3727C42.2107 20.2393 46.6267 18.6195 50.8936 17.7834C53.1776 17.3365 55.4295 17.0883 57.6492 17.0389C58.1641 17.0277 58.4149 17.2852 58.4016 17.8113C58.3389 20.3376 58.0413 22.8355 57.5089 25.3049C56.5882 29.579 54.8314 33.8332 51.5927 36.8638C50.3269 38.0478 48.9798 39.1273 47.5514 40.1025C47.5436 40.1079 47.5379 40.1158 47.5354 40.1249C47.5329 40.1339 47.5338 40.1435 47.5378 40.1519C47.9178 40.9575 48.2977 41.7679 48.6777 42.5831C48.8578 42.9699 48.9471 43.3988 48.9455 43.8696C48.9423 44.8899 48.5238 45.8616 47.7546 46.5336C47.5224 46.7365 47.106 46.9863 46.5056 47.2828C43.857 48.5933 41.2088 49.9037 38.5608 51.2142C38.2451 51.3704 37.9852 51.2461 37.7405 51.0006C37.1002 50.3597 36.459 49.7199 35.8171 49.0811C35.6423 48.9073 35.5336 48.7615 35.4911 48.6435C35.2711 48.0337 36.0762 47.5363 36.5233 47.9851C37.1408 48.6047 37.7594 49.2225 38.379 49.8384C38.3981 49.8575 38.4199 49.861 38.4444 49.8487C40.9452 48.6106 43.4462 47.3737 45.9476 46.1382C46.4779 45.8762 46.83 45.6612 47.0037 45.4933C47.5195 44.9935 47.7666 44.206 47.6247 43.491C47.5896 43.314 47.4884 43.0465 47.321 42.6883C47.0356 42.0788 46.7503 41.4714 46.4649 40.8661C46.4627 40.8614 46.4595 40.8573 46.4555 40.854C46.4516 40.8506 46.447 40.8482 46.442 40.8467C46.437 40.8453 46.4318 40.8449 46.4267 40.8457C46.4216 40.8464 46.4167 40.8482 46.4123 40.851C43.4369 42.7146 40.3006 44.2352 37.0032 45.4128C36.4261 45.6193 36.1567 45.538 35.9183 44.9895C34.8247 42.4701 33.0323 40.6424 30.541 39.5062C29.9918 39.2559 29.8212 39.0296 30.0301 38.4469C31.0626 35.5682 32.3584 32.8132 33.9176 30.1816C34.1434 29.8006 34.368 29.4185 34.5911 29.0354C34.6055 29.0109 34.5999 28.9926 34.5744 28.9804ZM46.4952 20.3684C50.1603 22.3692 53.0389 25.1758 55.1311 28.7883C55.1481 28.8175 55.1619 28.8162 55.1725 28.7843C56.3028 25.404 56.949 21.9318 57.1111 18.3677C57.1113 18.3635 57.1107 18.3594 57.1092 18.3555C57.1076 18.3516 57.1053 18.3481 57.1023 18.3452C57.0993 18.3422 57.0957 18.34 57.0917 18.3385C57.0877 18.337 57.0835 18.3363 57.0792 18.3366C53.4582 18.4965 49.9374 19.1616 46.5167 20.3317C46.504 20.336 46.4955 20.3445 46.4912 20.3572C46.4905 20.3593 46.4905 20.3615 46.4913 20.3635C46.492 20.3655 46.4934 20.3673 46.4952 20.3684ZM44.673 21.093C42.549 22.1117 40.697 23.4561 39.1171 25.1264C37.0335 27.3288 35.3635 29.9234 34.0013 32.6232C33.0405 34.5267 32.1738 36.473 31.4011 38.462C31.3989 38.4676 31.3989 38.4739 31.4011 38.4795C31.4034 38.4851 31.4076 38.4897 31.4131 38.4923C33.8687 39.7092 35.689 41.554 36.8741 44.0266C36.8809 44.0412 36.893 44.0526 36.9078 44.0585C36.9226 44.0644 36.9391 44.0644 36.9538 44.0585C43.848 41.3603 51.3169 37.5979 54.5229 30.4263C54.5346 30.3998 54.5338 30.3737 54.5205 30.3482C52.3587 26.173 49.1639 23.0552 44.936 20.9949C44.9111 20.9827 44.8864 20.9835 44.8619 20.9973C44.8194 21.0212 44.7564 21.0531 44.673 21.093Z" fill="#3B3B58"/>
<path d="M36.0092 21.336C36.3033 21.4524 36.7369 21.6301 36.9043 21.8868C37.2272 22.3802 36.709 23.033 36.1662 22.8322C36.1221 22.8157 36.0376 22.771 35.9127 22.6982C34.8319 22.0693 33.4584 22.0645 32.356 22.6424C32.2301 22.7086 32.0978 22.7899 31.9567 22.7971C31.2122 22.8346 30.9866 21.9187 31.6267 21.5783C33.0466 20.8226 34.5074 20.7419 36.0092 21.336Z" fill="#3B3B58"/>
<path d="M39.7327 29.8443C41.3006 29.3629 42.8494 30.1927 43.3181 31.7215C43.6672 32.8606 43.2503 34.2308 42.2619 34.9171C40.6326 36.0474 38.4318 35.2447 37.8635 33.3747C37.8021 33.1723 37.763 32.9411 37.8467 32.7442C38.0604 32.2436 38.7873 32.2189 39.0097 32.7243C39.0695 32.8606 39.103 33.079 39.1779 33.2328C39.6378 34.1758 40.8781 34.4612 41.6609 33.735C43.0742 32.4254 41.405 30.2285 39.7383 31.2512C39.543 31.3708 39.4051 31.5988 39.197 31.7016C38.8543 31.8706 38.4103 31.692 38.3027 31.3222C38.2766 31.2334 38.274 31.0865 38.2947 30.8814C38.402 29.8127 38.5102 28.744 38.6191 27.6754C38.6606 27.2681 39.0241 27.1381 39.4091 27.1373C40.4761 27.1352 41.5432 27.1347 42.6103 27.1357C42.8489 27.1357 43.0245 27.1676 43.1371 27.2314C43.6003 27.4936 43.5222 28.1887 43.024 28.3705C42.9506 28.3976 42.8419 28.4111 42.6979 28.4111C41.7547 28.4106 40.8114 28.4108 39.8682 28.4119C39.84 28.4119 39.8244 28.426 39.8212 28.4542L39.6857 29.8053C39.6819 29.8419 39.6976 29.8549 39.7327 29.8443Z" fill="#3B3B58"/>
<path d="M49.2663 31.9766C49.2663 31.9389 49.2474 31.92 49.2097 31.92C48.7538 31.9227 48.3021 31.9227 47.8546 31.92C47.6442 31.919 47.4861 31.8855 47.3804 31.8196C46.8511 31.4928 47.0982 30.6478 47.704 30.647C48.3395 30.646 48.9748 30.6457 49.6099 30.6462C50.1105 30.6462 50.5473 30.7411 50.5465 31.3158C50.5449 32.1613 50.5462 33.007 50.5505 33.853C50.5544 34.7537 49.8825 35.4424 48.9802 35.4432C48.1432 35.4443 47.3062 35.4459 46.4693 35.448C45.9538 35.4496 45.5377 35.2612 45.221 34.8829C44.9316 34.5361 44.8774 34.187 44.8774 33.7008C44.8758 32.1134 44.8756 30.5264 44.8766 28.9396C44.8766 28.5692 44.9133 28.2892 44.9866 28.0995C45.2704 27.3637 45.8698 27.1382 46.6366 27.1366C47.3567 27.135 48.0762 27.1352 48.7952 27.1374C49.1406 27.1379 49.405 27.1746 49.5883 27.2474C50.2308 27.5016 50.5289 28.0556 50.5441 28.73C50.5489 28.9843 50.5744 29.3031 50.4811 29.5207C50.2906 29.9647 49.6051 30.0101 49.3636 29.5845C49.2328 29.3525 49.2599 29.0265 49.2775 28.7547C49.2966 28.447 49.118 28.4087 48.855 28.4095C48.0244 28.4117 47.2045 28.4122 46.3951 28.4111C46.3631 28.411 46.3314 28.4172 46.3018 28.4294C46.2723 28.4416 46.2454 28.4595 46.2227 28.4821C46.2 28.5046 46.1821 28.5315 46.1698 28.561C46.1575 28.5906 46.1512 28.6223 46.1512 28.6543V33.9112C46.1512 33.9791 46.1782 34.0441 46.2264 34.0921C46.2745 34.1401 46.3398 34.1671 46.4079 34.1671H48.9578C49.1656 34.1671 49.2692 34.0632 49.2687 33.8554L49.2663 31.9766Z" fill="#3B3B58"/>
<path d="M24.1542 43.5715C25.6432 44.1948 27.9302 42.4292 28.9967 41.5046C29.1455 41.3749 29.2802 41.2976 29.4008 41.2726C30.0656 41.1355 30.4179 41.9517 29.9229 42.3957C28.4084 43.7524 25.0932 46.0879 23.0638 44.3813C22.8789 44.2256 22.7649 44.071 22.7218 43.9174C22.607 43.5125 23.0136 43.0709 23.4392 43.1458C23.7198 43.1952 23.9087 43.4686 24.1542 43.5715Z" fill="#3B3B58"/>
<path d="M31.0926 43.462L28.5631 45.9827C28.3193 46.2257 28.3186 46.6204 28.5616 46.8643L28.5796 46.8823C28.8226 47.1262 29.2173 47.1269 29.4611 46.8839L31.9906 44.3632C32.2345 44.1202 32.2352 43.7255 31.9922 43.4816L31.9742 43.4636C31.7312 43.2197 31.3365 43.219 31.0926 43.462Z" fill="#3B3B58"/>
<path d="M33.8184 46.4076C32.8969 47.4542 30.8635 50.1093 31.9994 51.5298C32.1099 51.6674 32.1769 51.7806 32.2002 51.8694C32.3621 52.4728 31.6478 52.9152 31.1592 52.4919C30.8228 52.2007 30.5872 51.7854 30.4522 51.246C29.9819 49.3688 31.663 46.9376 32.8355 45.5929C33.0088 45.3947 33.1629 45.2725 33.2979 45.2262C33.7116 45.0852 34.1906 45.5244 34.0926 45.9612C34.066 46.0802 33.9746 46.229 33.8184 46.4076Z" fill="#3B3B58"/>
</g>
<defs>
<filter id="filter0_d_1519_4472" x="0.0851512" y="0.3901" width="80.9332" height="77.4891" filterUnits="userSpaceOnUse" color-interpolation-filters="sRGB">
<feFlood flood-opacity="0" result="BackgroundImageFix"/>
<feColorMatrix in="SourceAlpha" type="matrix" values="0 0 0 0 0 0 0 0 0 0 0 0 0 0 0 0 0 0 127 0" result="hardAlpha"/>
<feMorphology radius="6.02693" operator="erode" in="SourceAlpha" result="effect1_dropShadow_1519_4472"/>
<feOffset dy="4.30495"/>
<feGaussianBlur stdDeviation="9.47089"/>
<feComposite in2="hardAlpha" operator="out"/>
<feColorMatrix type="matrix" values="0 0 0 0 0.608333 0 0 0 0 0.565243 0 0 0 0 0.575417 0 0 0 0.18 0"/>
<feBlend mode="normal" in2="BackgroundImageFix" result="effect1_dropShadow_1519_4472"/>
<feBlend mode="normal" in="SourceGraphic" in2="effect1_dropShadow_1519_4472" result="shape"/>
</filter>
</defs>
</svg>
